<svg class="svg-icon" style="width: 1em; height: 1em;vertical-align: middle;fill: currentColor;overflow: hidden;" viewBox="0 0 1024 1024" version="1.1" xmlns="http://www.w3.org/2000/svg"><path d="M325.5 851.2c-8 0-14.9-3-20.9-8L73 623.5c-5-6-9-12.9-9-21.9 0-8 3-15.9 9-21.9L304.7 350c8.9-9 20.9-10.9 32.8-6 10.9 5 17.9 15.9 17.9 27.8v109.4h363c16.9 0 29.8 12.9 29.8 29.8v37.8l139.2-138.2-139.2-138.1v49.7c0 16.9-12.9 29.8-29.8 29.8H486.6c-16.9 0-29.8-12.9-29.8-29.8s12.9-29.8 29.8-29.8h201.9v-89.5c0-11.9 7-22.9 17.9-27.8 10.9-5 23.9-2 32.8 6L951 390.8c6 6 8.9 12.9 8.9 20.9 0 8-3 15.9-8.9 20.9L739.2 642.4c-9 9-20.9 10.9-32.8 6-10.9-5-17.9-15.9-17.9-27.8V541h-363c-16.9 0-29.8-12.9-29.8-29.8v-68.6l-159.1 157 159.1 150.2v-60.7c0-16.9 12.9-29.8 29.8-29.8h231.7c16.9 0 29.8 12.9 29.8 29.8s-12.9 29.8-29.8 29.8H355.4v99.4c0 11.9-7 22.9-17.9 27.8-4 4.1-8 5.1-12 5.1z m0 0"  /></svg>