<svg id="visual" viewBox="0 0 900 600" width="900" height="600" xmlns="http://www.w3.org/2000/svg" xmlns:xlink="http://www.w3.org/1999/xlink" version="1.1"><rect x="0" y="0" width="900" height="600" fill="#002233"></rect><path d="M0 420L21.5 421.8C43 423.7 86 427.3 128.8 422.2C171.7 417 214.3 403 257.2 399.3C300 395.7 343 402.3 385.8 416C428.7 429.7 471.3 450.3 514.2 449C557 447.7 600 424.3 642.8 421.3C685.7 418.3 728.3 435.7 771.2 431.3C814 427 857 401 878.5 388L900 375L900 601L878.5 601C857 601 814 601 771.2 601C728.3 601 685.7 601 642.8 601C600 601 557 601 514.2 601C471.3 601 428.7 601 385.8 601C343 601 300 601 257.2 601C214.3 601 171.7 601 128.8 601C86 601 43 601 21.5 601L0 601Z" fill="#0066FF" stroke-linecap="round" stroke-linejoin="miter"></path></svg>